<svg xmlns:xlink="http://www.w3.org/1999/xlink" width="75ex" height="3.176ex" style="font-size: 15px; vertical-align: -1.005ex; max-width: 450;" viewBox="0 -934.9 32291.5 1367.4" role="img" focusable="false" xmlns="http://www.w3.org/2000/svg">
<defs>
<path stroke-width="1" id="E1-MJMAIN-28" d="M94 250Q94 319 104 381T127 488T164 576T202 643T244 695T277 729T302 750H315H319Q333 750 333 741Q333 738 316 720T275 667T226 581T184 443T167 250T184 58T225 -81T274 -167T316 -220T333 -241Q333 -250 318 -250H315H302L274 -226Q180 -141 137 -14T94 250Z"></path>
<path stroke-width="1" id="E1-MJMAIN-34" d="M462 0Q444 3 333 3Q217 3 199 0H190V46H221Q241 46 248 46T265 48T279 53T286 61Q287 63 287 115V165H28V211L179 442Q332 674 334 675Q336 677 355 677H373L379 671V211H471V165H379V114Q379 73 379 66T385 54Q393 47 442 46H471V0H462ZM293 211V545L74 212L183 211H293Z"></path>
<path stroke-width="1" id="E1-MJMAIN-2E" d="M78 60Q78 84 95 102T138 120Q162 120 180 104T199 61Q199 36 182 18T139 0T96 17T78 60Z"></path>
<path stroke-width="1" id="E1-MJMAIN-32" d="M109 429Q82 429 66 447T50 491Q50 562 103 614T235 666Q326 666 387 610T449 465Q449 422 429 383T381 315T301 241Q265 210 201 149L142 93L218 92Q375 92 385 97Q392 99 409 186V189H449V186Q448 183 436 95T421 3V0H50V19V31Q50 38 56 46T86 81Q115 113 136 137Q145 147 170 174T204 211T233 244T261 278T284 308T305 340T320 369T333 401T340 431T343 464Q343 527 309 573T212 619Q179 619 154 602T119 569T109 550Q109 549 114 549Q132 549 151 535T170 489Q170 464 154 447T109 429Z"></path>
<path stroke-width="1" id="E1-MJMAIN-31" d="M213 578L200 573Q186 568 160 563T102 556H83V602H102Q149 604 189 617T245 641T273 663Q275 666 285 666Q294 666 302 660V361L303 61Q310 54 315 52T339 48T401 46H427V0H416Q395 3 257 3Q121 3 100 0H88V46H114Q136 46 152 46T177 47T193 50T201 52T207 57T213 61V578Z"></path>
<path stroke-width="1" id="E1-MJMAIN-29" d="M60 749L64 750Q69 750 74 750H86L114 726Q208 641 251 514T294 250Q294 182 284 119T261 12T224 -76T186 -143T145 -194T113 -227T90 -246Q87 -249 86 -250H74Q66 -250 63 -250T58 -247T55 -238Q56 -237 66 -225Q221 -64 221 250T66 725Q56 737 55 738Q55 746 60 749Z"></path>
<path stroke-width="1" id="E1-MJMATHI-3C3" d="M184 -11Q116 -11 74 34T31 147Q31 247 104 333T274 430Q275 431 414 431H552Q553 430 555 429T559 427T562 425T565 422T567 420T569 416T570 412T571 407T572 401Q572 357 507 357Q500 357 490 357T476 358H416L421 348Q439 310 439 263Q439 153 359 71T184 -11ZM361 278Q361 358 276 358Q152 358 115 184Q114 180 114 178Q106 141 106 117Q106 67 131 47T188 26Q242 26 287 73Q316 103 334 153T356 233T361 278Z"></path>
<path stroke-width="1" id="E1-MJMAIN-2218" d="M55 251Q55 328 112 386T249 444T386 388T444 249Q444 171 388 113T250 55Q170 55 113 112T55 251ZM245 403Q188 403 142 361T96 250Q96 183 141 140T250 96Q284 96 313 109T354 135T375 160Q403 197 403 250Q403 313 360 358T245 403Z"></path>
<path stroke-width="1" id="E1-MJMAIN-2212" d="M84 237T84 250T98 270H679Q694 262 694 250T679 230H98Q84 237 84 250Z"></path>
<path stroke-width="1" id="E1-MJMAIN-3D" d="M56 347Q56 360 70 367H707Q722 359 722 347Q722 336 708 328L390 327H72Q56 332 56 347ZM56 153Q56 168 72 173H708Q722 163 722 153Q722 140 707 133H70Q56 140 56 153Z"></path>
<path stroke-width="1" id="E1-MJMAIN-49" d="M328 0Q307 3 180 3T32 0H21V46H43Q92 46 106 49T126 60Q128 63 128 342Q128 620 126 623Q122 628 118 630T96 635T43 637H21V683H32Q53 680 180 680T328 683H339V637H317Q268 637 254 634T234 623Q232 620 232 342Q232 63 234 60Q238 55 242 53T264 48T317 46H339V0H328Z"></path>
<path stroke-width="1" id="E1-MJMAIN-64" d="M376 495Q376 511 376 535T377 568Q377 613 367 624T316 637H298V660Q298 683 300 683L310 684Q320 685 339 686T376 688Q393 689 413 690T443 693T454 694H457V390Q457 84 458 81Q461 61 472 55T517 46H535V0Q533 0 459 -5T380 -11H373V44L365 37Q307 -11 235 -11Q158 -11 96 50T34 215Q34 315 97 378T244 442Q319 442 376 393V495ZM373 342Q328 405 260 405Q211 405 173 369Q146 341 139 305T131 211Q131 155 138 120T173 59Q203 26 251 26Q322 26 373 103V342Z"></path>
</defs>
<g stroke="currentColor" fill="currentColor" stroke-width="0" transform="matrix(1 0 0 -1 0 0)">
<g transform="translate(29454,0)">
<g id="mjx-eqn-4.2.1" transform="translate(0,-67)">
 <use xlink:href="#E1-MJMAIN-28"></use>
 <use xlink:href="#E1-MJMAIN-34" x="389" y="0"></use>
 <use xlink:href="#E1-MJMAIN-2E" x="890" y="0"></use>
 <use xlink:href="#E1-MJMAIN-32" x="1168" y="0"></use>
 <use xlink:href="#E1-MJMAIN-2E" x="1669" y="0"></use>
 <use xlink:href="#E1-MJMAIN-31" x="1947" y="0"></use>
 <use xlink:href="#E1-MJMAIN-29" x="2448" y="0"></use>
</g>
</g>
<g transform="translate(11291,0)">
<g transform="translate(-11,0)">
<g transform="translate(0,-67)">
 <use xlink:href="#E1-MJMATHI-3C3" x="0" y="0"></use>
 <use xlink:href="#E1-MJMAIN-2218" x="794" y="0"></use>
<g transform="translate(1517,0)">
 <use xlink:href="#E1-MJMATHI-3C3" x="0" y="0"></use>
<g transform="translate(572,412)">
 <use transform="scale(0.707)" xlink:href="#E1-MJMAIN-2212" x="0" y="0"></use>
 <use transform="scale(0.707)" xlink:href="#E1-MJMAIN-31" x="778" y="0"></use>
</g>
</g>
 <use xlink:href="#E1-MJMAIN-3D" x="3372" y="0"></use>
<g transform="translate(4428,0)">
 <use xlink:href="#E1-MJMATHI-3C3" x="0" y="0"></use>
<g transform="translate(572,412)">
 <use transform="scale(0.707)" xlink:href="#E1-MJMAIN-2212" x="0" y="0"></use>
 <use transform="scale(0.707)" xlink:href="#E1-MJMAIN-31" x="778" y="0"></use>
</g>
</g>
 <use xlink:href="#E1-MJMAIN-2218" x="6228" y="0"></use>
 <use xlink:href="#E1-MJMATHI-3C3" x="6950" y="0"></use>
 <use xlink:href="#E1-MJMAIN-3D" x="7801" y="0"></use>
<g transform="translate(8857,0)">
 <use xlink:href="#E1-MJMAIN-49" x="0" y="0"></use>
 <use xlink:href="#E1-MJMAIN-64" x="361" y="0"></use>
</g>
 <use xlink:href="#E1-MJMAIN-2E" x="9775" y="0"></use>
</g>
</g>
</g>
</g>
</svg>